<svg width="30" height="31" viewBox="0 0 30 31" fill="none" xmlns="http://www.w3.org/2000/svg">
<path d="M9.76999 5.16696L15.0025 5.98913e-08L20.2351 5.16696L15.0025 14.855L9.76999 5.16696Z" fill="#6366F1"/>
<path d="M20.2325 25.833L15 31L9.7674 25.833L15 16.145L20.2325 25.833Z" fill="#6366F1"/>
<path d="M21.5643 5.18311L28.3837 7.42393L26.7968 14.8317L16.2996 14.8514L21.5643 5.18311Z" fill="#363885"/>
<path d="M8.4357 5.18311L1.61627 7.42393L3.20314 14.8317L13.7003 14.8514L8.4357 5.18311Z" fill="#363885"/>
<path d="M8.4357 25.8169L1.61626 23.5761L3.20314 16.1683L13.7003 16.1486L8.4357 25.8169Z" fill="#363885"/>
<path d="M21.5643 25.8169L28.3837 23.5761L26.7968 16.1683L16.2996 16.1486L21.5643 25.8169Z" fill="#363885"/>
</svg>
