<svg width="400" height="400" viewBox="0 0 400 400" fill="none" xmlns="http://www.w3.org/2000/svg">
<path d="M130.233 68.8928L200 7.9855e-07L269.767 68.8928L200 198.067L130.233 68.8928Z" fill="#6366F1"/>
<path d="M269.767 331.107L199.999 400L130.232 331.107L199.999 201.933L269.767 331.107Z" fill="#6366F1"/>
<path d="M274.19 69.1081L365.116 98.9858L343.958 197.756L203.995 198.019L274.19 69.1081Z" fill="#363885"/>
<path d="M125.809 69.1081L34.8836 98.9858L56.042 197.756L196.005 198.019L125.809 69.1081Z" fill="#363885"/>
<path d="M125.809 330.892L34.8836 301.015L56.042 202.244L196.005 201.981L125.809 330.892Z" fill="#363885"/>
<path d="M274.19 330.892L365.116 301.014L343.958 202.244L203.995 201.981L274.19 330.892Z" fill="#363885"/>
</svg>
