<svg width="16" height="17" viewBox="0 0 16 17" fill="none" xmlns="http://www.w3.org/2000/svg">
<path d="M5.21066 2.75571L8.00136 3.1942e-08L10.7921 2.75571L8.00136 7.92268L5.21066 2.75571Z" fill="#6366F1"/>
<path d="M10.7907 13.6443L7.99998 16.4L5.20928 13.6443L7.99998 8.47733L10.7907 13.6443Z" fill="#6366F1"/>
<path d="M11.5009 2.76432L15.138 3.95943L14.2916 7.91025L8.69312 7.92077L11.5009 2.76432Z" fill="#363885"/>
<path d="M4.49904 2.76432L0.862006 3.95943L1.70834 7.91025L7.30685 7.92077L4.49904 2.76432Z" fill="#363885"/>
<path d="M4.49904 13.6357L0.862006 12.4406L1.70834 8.48977L7.30685 8.47926L4.49904 13.6357Z" fill="#363885"/>
<path d="M11.5009 13.6357L15.138 12.4406L14.2916 8.48975L8.69312 8.47923L11.5009 13.6357Z" fill="#363885"/>
</svg>
